<svg><path class="st0" d="M60.6 266.3c8-.6 44.8-32.8 57-33.6 17.9-1.2 53.5 18.4 66.5 25.3 0 0-45.3-37.6-67.4-33.4-22.1 4.1-56.1 41.7-56.1 41.7z"/><path class="st1" d="M59.4 266.7c-3.4.1-23.3-6.4-28.7-10.7 0 0 5.4-22.4 20.1-24.1 21-2.5 44.7-7.1 61.1-13.1 16.5-6 99.1-32.8 117.9-34.3 0 0 31.4 29.1 26.3 52.5-1.7 7.8-6.8 28.7-8.3 34.4-2.2 8.4-31.1 4.9-44.2-1.7-13.1-6.5-67.8-44.3-85.5-41.3-18.4 3.3-50.3 38-58.7 38.3z"/><path class="st0" d="M56.6 263.5c-3.3.1-17.5-5.5-22.7-9.2 0 0 3.6-18 17.7-19.5 26.7-2.9 52.3-9.6 61.7-12.7 15.8-5.2 97.9-33.6 115.8-34.8 0 0 29.5 29.6 24.6 50.1-1.6 6.8-9.9 25.1-11.4 30.2-2.1 7.4-29.1 1.9-41.6-3.9-12.5-5.7-55.6-45-85.1-37.2-25.6 6.8-50.9 36.8-59 37z"/><path class="st2" d="M57.2 262.2c-3.3.1-14.9-5.5-20.2-9.7 0 0 2.6-13.8 16.9-15.5 20.5-2.4 44.5-6.6 60.5-12.4 16-5.8 95.9-31.2 114.1-32.6 0 0 27.3 23.7 22.4 46.4-1.7 7.6-9.7 19.3-11.1 25-2.1 8.2-23.1 4.9-35.9-1.5-12.7-6.4-63.4-38.9-80.7-36.5-29.8 4.2-62.8 36.7-66 36.8z"/><path class="st3" d="M56.1 257.5c-1.6 1.1-11.6-1.9-12.7-6.8-.5-2 2.7-4.8 5.2-7 0 0 17.4-4.2 38.1-8 .1-.1-20.4 14.6-30.6 21.8z"/><path class="st4" d="M130.4 222.5c22.9 1.1 83.5 39 92.1 40.8 3.9.8 10.4.6 11.2-1.1s13.7-23.8 13.2-31.6c-.7-10.4-14.8-31.4-20.4-32.9-11.4-2.8-96.1 24.8-96.1 24.8z"/><path class="st3" d="M242.5 243.6c-1.3-1-14.8-15.1-63.6-18.1 0 0 55.8 3.5 63.2-7.4 0 0 7.8 15 .4 25.5z"/><path class="st3" d="M247 230.7c-.4-6.2-5.6-16.3-11-23.6 4.4 6.8 8.2 14.9 8.6 20.1.5 7.8-11.1 30.7-11.9 32.3s-8.3 2.5-12.2 1.7c-7.7-1.7-57.3-33.1-84.1-40.6-3.8 1.2-6.1 2-6.1 2 22.9 1.1 83.9 40.3 92.5 42.1 3.9.8 11.3 0 12.2-1.7s12.5-24.6 12-32.3z"/><path class="st3" d="M149.1 223.8s79.7-23.2 90.3-11.7c-4.5-7.3-9.4-14.5-12.4-15.2-11.5-2.9-96.6 25.7-96.6 25.7 22.9 1.1 83.9 40.3 92.5 42.1h.3c-20.9-14.4-66.9-36.5-74.1-40.9z"/><path class="st2" d="M245.6 243.1c0-7.5-20.2-13.8-46.3-16.3 0 0 36.4 2.8 45.5-7.4 0-.1 8.3 10.7.8 23.7z"/><path class="st5" d="M84.6 203.3l30.7 4.2 28.5-14.6s-21.3 4.8-31.8 9.4H89.3l-4.7 1z"/><path class="st6" d="M25.2 272.1c-4.1-3.3-11.1-7.2-8.8-26 0 0-6.2 17.1-1.7 23.2 3.3 4.5 10.5 2.8 10.5 2.8z"/><path class="st1" d="M112.5 225.8c-7.7 2.1-20.8 11.7-25 14.7-.2.1-.4.2-.5.4 0 0 16.9-10.1 26.4-12.7s26.4.4 26.4.4c-8-3.7-19.3-5-27.3-2.8z"/><path class="st2" d="M216.3 240.3c3.1-8.9 4.2-9.2 5.8-12.3l-3.7 1.1c0-.1-2.6 12.6-2.1 11.2zM224.6 227.7c.7-.6 2.8-4.8 2.2-9.4 0 0 2.3 5.6 3.5 8.7l-5.7.7z"/><path class="st5" d="M245.7 184.1s20 11.9 22.5 32.2c0 0 9.8-6.5 9.7-9 0-2.5-19-21.5-28.9-24.7l-3.3 1.5z"/><path class="st2" d="M133.4 219.9s25.8 4.4 42.9 5.7c0 0-36.5-2.4-42.9-1.7l-4.6-1.1 4.6-2.9zM59.5 255.1c-5.7.7-11.5-2.9-6.2-6.3 0 0-8.5 0-4.1-5.9 0 0-9 3.6-7.3 9 2.5 7.3 17 8.9 17.6 3.2zM88 234.1c-.4.1-13.4 6.9-22.1 9.8 0 0 19.5-6.5 20.7-5.9l1.4-3.9z"/><path class="st2" d="M168.1 224.8c7.6.5 10.7 4.1 11.2 6.5 0 0 .6-4.6 3.5-5.5l-14.7-1z"/><path class="st3" d="M195 208.4s4.2 5.4 3.8 13.7c0 0 .8-12.3 4.1-14.5l-7.9.8z"/><path class="st7" d="M65.1 245.1c-1.7 2.9-4 5.6-5.4 5.9-1.4.3-4.9-1.6-4.1-2.6.9-1 9.5-3.3 9.5-3.3z"/><path class="st5" d="M97.6 272.4c3.6-6.1 15.2-19.3 19.9-20.4 4.7-1.1 18.2.6 18.2.6l8.3 9.1s-14.4-4.2-24-3c-9.5 1-22.4 13.7-22.4 13.7z"/><path class="st2" d="M52.4 249c2.1-1.2 2.8-2.2 7.1-3s7-2.3 7-2.3-3 1.7-6 2.9c-2.9 1-8.1 2.4-8.1 2.4z"/><path class="st3" d="M220.5 262c.3.2.6.4.9.5l-.9-.5zM214.3 250.7l-4.3 5.9 10.6 5.3c-3.1-1.9-6.6-8.2-6.3-11.2zM177.1 239.2l1.5-4.1 2.6 6.3z"/><path class="st2" d="M170.1 223.6c-1.4 1.1-2.5 1.4-2.5 1.4l6.3.5c-1.5-1.2-3.8-1.9-3.8-1.9zM69.1 242.7l-4.9 2s3.6 1 3.7 4.6c.1 3.6.4.1.4.1l1.2-.8s-2.2-5-.4-5.9zM57.2 247.2l3.2-1.1s-2.3-1.9-2.3-5.5-.2-.2-.2-.2l-.7.7c0 .1 1 5.3 0 6.1z"/></svg>