<svg xmlns="http://www.w3.org/2000/svg"><circle transform="rotate(-80.886 92.868 290.248)" class="st0" cx="92.9" cy="290.3" r="47.6"/><circle transform="rotate(-76.102 92.87 290.262)" class="st1" cx="92.9" cy="290.3" r="44.7"/><circle class="et2" cx="92.9" cy="290.3" r="41.8"/><circle transform="rotate(-80.921 196.177 290.243)" class="st0" cx="196.2" cy="290.3" r="47.6"/><circle transform="rotate(-45.001 196.192 290.258)" class="st1" cx="196.2" cy="290.3" r="44.7"/><circle class="et3" cx="196.2" cy="290.3" r="41.8"/><ellipse class="et4" cx="196.2" cy="290.2" rx="23.9" ry="23.7"/><path class="et5" d="M196.2 312.7c-12.2 0-22.1-10.1-22.1-22.5s9.9-22.5 22.1-22.5c12.2 0 22.1 10.1 22.1 22.5s-9.9 22.5-22.1 22.5z"/><path class="et6" d="M196.2 304.3c-7.2 0-13.7-3.3-17.8-8.4 2.3 8.2 9.5 14.4 17.8 14.4 8.2 0 15.4-6.2 17.8-14.4-4.1 5.1-10.6 8.4-17.8 8.4z"/><ellipse class="et7" cx="196.2" cy="290.2" rx="17.8" ry="17.7"/><path class="et8" d="M203.4 291.6c-4.9 0-9.1-4.5-9.1-9.8s4.2-9.8 9.1-9.8c4.9 0 9.1 4.5 9.1 9.8s-4.1 9.8-9.1 9.8z"/><path class="et9" d="M181.4 295.7c0 1.8 1.5 3.2 3.3 3.2 1.8 0 3.3-1.4 3.3-3.2 0-1.8-1.5-3.2-3.3-3.2-1.9 0-3.3 1.4-3.3 3.2z"/><g><ellipse class="et4" cx="92.9" cy="290.2" rx="23.9" ry="23.7"/><path class="et10" d="M92.9 312.7c-12.2 0-22.1-10.1-22.1-22.5s9.9-22.5 22.1-22.5c12.2 0 22.1 10.1 22.1 22.5s-9.9 22.5-22.1 22.5z"/><path class="et11" d="M92.9 304.3c-7.2 0-13.7-3.3-17.8-8.4 2.3 8.2 9.5 14.4 17.8 14.4 8.2 0 15.4-6.2 17.8-14.4-4.1 5.1-10.6 8.4-17.8 8.4z"/><ellipse class="et7" cx="92.9" cy="290.2" rx="17.8" ry="17.7"/><path class="et12" d="M100.1 291.6c-4.9 0-9.1-4.5-9.1-9.8s4.2-9.8 9.1-9.8c4.9 0 9.1 4.5 9.1 9.8s-4.2 9.8-9.1 9.8z"/><path class="et13" d="M78 295.7c0 1.8 1.5 3.2 3.3 3.2 1.8 0 3.3-1.4 3.3-3.2 0-1.8-1.5-3.2-3.3-3.2-1.8 0-3.3 1.4-3.3 3.2z"/></g><path class="et0" d="M217.9 224.1s-.6 1-1.9 2.7c-.6.8-1.4 1.9-2.4 2.9-1 1.1-2.1 2.3-3.4 3.6-1.3 1.3-2.8 2.6-4.4 3.8a46.6 46.6 0 01-5.4 3.8l-1.5.9-1.5.9c-1 .6-2.1 1.1-3.2 1.6-2.2 1-4.5 1.9-6.9 2.6-2.4.7-4.8 1.3-7.2 1.6-1.2.2-2.4.3-3.6.4-1.2 0-2.4.1-3.5.1-1.2-.1-2.3-.1-3.4-.2s-2.2-.3-3.2-.4l-3-.6c-1-.3-1.9-.5-2.8-.8-.9-.2-1.7-.6-2.5-.9-.8-.3-1.5-.6-2.2-.9-1.3-.7-2.5-1.2-3.4-1.8-.9-.5-1.6-1-2.1-1.3-.5-.3-.7-.5-.7-.5s.3.1.8.2 1.3.3 2.3.6c1 .3 2.2.5 3.6.8.7.2 1.4.3 2.2.4.8.1 1.6.3 2.5.4.9.1 1.7.2 2.7.3.9.1 1.9.1 2.9.2h3c1 0 2.1-.1 3.1-.1 1.1-.1 2.1-.2 3.2-.3 1.1-.2 2.2-.3 3.2-.5 1.1-.2 2.2-.4 3.3-.7l1.6-.4c.5-.2 1.1-.3 1.6-.5 2.2-.6 4.3-1.5 6.4-2.3 2.1-.9 4.1-1.8 6-2.8 1.9-1 3.7-2 5.5-3 1.7-1 3.3-2 4.8-3s2.8-1.9 4-2.7c1.2-.8 2.2-1.6 3-2.2.8-.6 1.5-1.1 1.9-1.5l.6-.4zM72.1 226.4s.2.2.7.5c.4.3 1.1.8 1.9 1.4 1.7 1.2 4 2.9 6.9 4.7 1.4.9 3 1.8 4.7 2.8 1.7.9 3.5 1.9 5.4 2.7.9.5 1.9.8 2.9 1.3l3 1.2c.5.2 1 .4 1.6.5l1.6.5c1 .4 2.1.6 3.2.9 1.1.3 2.2.5 3.2.7 1.1.1 2.2.4 3.2.5 2.2.2 4.3.4 6.4.4h3.1c1 0 2-.1 2.9-.2 1-.1 1.9-.2 2.8-.3.9-.1 1.8-.3 2.6-.4.8-.1 1.6-.3 2.4-.5.8-.1 1.5-.3 2.2-.5.7-.2 1.3-.3 1.9-.5.6-.1 1.1-.3 1.6-.4 1-.3 1.8-.5 2.3-.7.5-.1.8-.2.8-.2s-.2.2-.7.5c-.5.3-1.1.8-2 1.3-.9.6-2 1.2-3.3 1.8-1.3.7-2.8 1.3-4.5 2-.9.3-1.7.6-2.7.9-.9.3-1.9.5-2.9.8-1 .3-2.1.4-3.1.6-1.1.2-2.2.3-3.3.4-1.1.1-2.3.1-3.5.1-1.2 0-2.4-.1-3.6-.2-1.2-.1-2.4-.3-3.6-.4-1.2-.2-2.4-.4-3.6-.7-2.4-.6-4.7-1.3-6.9-2.3-2.2-.9-4.3-1.9-6.3-3.1-2-1.1-3.8-2.3-5.4-3.6-1.6-1.2-3.1-2.5-4.4-3.7-1.3-1.2-2.4-2.4-3.4-3.5s-1.8-2.1-2.4-2.9c-1.1-1.4-1.7-2.4-1.7-2.4z"/><path class="et0" d="M196.2 274.2c18.6 0 35.3 4.5 47.4 11.8-2.1-24.3-22.5-43.4-47.4-43.4s-45.3 19.1-47.4 43.4c12.1-7.3 28.8-11.8 47.4-11.8zM92.9 274.2c18.6 0 35.3 4.5 47.4 11.8-2.1-24.3-22.5-43.4-47.4-43.4S47.6 261.7 45.5 286c12-7.3 28.8-11.8 47.4-11.8z"/></svg>